<?xml version="1.0" encoding="UTF-8" standalone="no"?>
<!-- Created with Inkscape (http://www.inkscape.org/) -->

<svg
   width="500.0px"
   height="500.0px"
   viewBox="0 0 500.0 500.0"
   version="1.1"
   id="SVGRoot"
   xmlns="http://www.w3.org/2000/svg"
   xmlns:svg="http://www.w3.org/2000/svg">
  <defs
     id="defs236">
    <clipPath
       clipPathUnits="userSpaceOnUse"
       id="clipPath3764">
      <path
         id="path3766"
         style="fill:#ff0000;fill-opacity:1;fill-rule:nonzero;stroke:none"
         d="M 195.46285,-50.75864 V 227.03238 H 512.07809 V 107.20621 c -1.73873,1.20354 -3.48295,2.39933 -5.25781,3.54882 -2.86477,1.85536 -5.78974,3.61646 -8.71875,5.36914 -3.28282,6.18111 -6.53109,12.38086 -9.78321,18.57813 -1.79093,3.41287 -2.93095,5.86382 -5.39258,8.83984 -1.08281,1.3091 -2.37417,2.43046 -3.56054,3.64649 -1.1302,0.94051 -2.3255,1.80866 -3.39063,2.82226 -0.48048,0.45724 -0.87806,0.99346 -1.26367,1.53516 0.03,0.0447 0.062,0.088 0.0918,0.13281 0.0545,0.0818 -0.32804,0.19176 -0.27148,0.11133 0.058,-0.0825 0.12106,-0.16178 0.17968,-0.24414 -1.35163,-2.01512 -2.84701,-3.93059 -4.26953,-5.89649 -0.55021,-0.76036 -0.85611,-1.12822 -1.02734,-1.27734 -0.0407,0.044 -0.0801,0.0836 -0.1211,0.12891 0.52528,1.80883 7.70788,14.57732 3.00392,9.60351 -1.82374,-1.92832 -4.20092,-3.45447 -5.47071,-5.78515 -0.39051,-0.71679 0.65717,-1.50884 1.13866,-2.16797 0.48463,-0.66341 0.91382,-1.19159 1.32813,-1.65039 -0.0602,-0.20725 -0.022,-0.25353 0.1211,-0.12891 1.11625,-1.20691 2.14345,-1.92604 3.83202,-3.30273 0.8694,-0.83972 1.82068,-1.60196 2.60744,-2.51953 2.1982,-2.5638 3.18052,-4.78116 4.77734,-7.82422 1.1007,-2.09761 2.16449,-4.21515 3.26562,-6.3125 0.63223,-1.20421 0.87257,-1.61499 1.39844,-2.61328 -0.49104,0.0274 -0.983,0.0436 -1.47071,0.0898 -3.2948,1.6202 -6.61728,3.18097 -9.88281,4.85937 -9.74471,5.00859 -18.89578,9.72774 -28.02344,15.75782 -2.10618,1.39142 -3.70117,3.54697 -5.96483,4.66406 -0.92525,0.4566 1.14783,-1.71346 1.72264,-2.57031 4.77367,-7.116 -11.42705,8.54197 -8.64452,0.4375 0.53873,-1.56916 0.54528,-3.44075 1.61719,-4.70703 3.06876,-3.62528 18.18,-12.16097 19.89062,-13.1211 3.3286,-1.86828 5.72369,-3.18632 7.86523,-4.33789 -2.7296,-1.51731 -2.96755,-3.61802 -5.1836,-7.67773 0.81239,-2.25558 0.85329,-4.96449 2.43556,-6.76563 3.70292,-4.21518 10.73839,-7.34641 17.09765,-9.6875 0.24971,-0.9126 0.49806,-1.82569 0.75587,-2.73633 1.13989,-4.02638 2.66997,-10.74271 6.74804,-12.8457 0.52867,-0.27264 1.01504,-0.37501 1.46094,-0.34375 1.4153,0.0992 2.42336,1.55763 3.11134,3.26563 0.50139,-0.15549 1.04208,-0.27573 1.66599,-0.30079 0.25798,-0.0104 0.59128,0.0842 0.86915,0.0996 0.9867,-0.9442 2.56525,-1.61514 4.75781,-1.64257 0.25187,-0.003 0.50996,0.002 0.77734,0.0156 0.32709,0.0172 2.01015,0.10557 2.52735,0.13281 0.90119,-0.33408 1.93345,-0.57617 3.2246,-0.57617 1.73118,0 3.46247,-0.0463 5.19336,-0.0352 0.577,0.004 1.15377,0.0152 1.73048,0.0352 0.78676,0.0272 1.6327,0.0765 2.50195,0.13867 V -50.75864 Z M 489.9023,93.94644 c -0.0272,0.15249 -0.0605,0.29833 -0.0937,0.44336 0.22839,-0.068 0.38991,-0.12258 0.62305,-0.19141 -0.20489,-0.0697 -0.33921,-0.17446 -0.5293,-0.25195 z m 20.26759,4.06445 c -2.09161,0.48503 -4.24156,1.01454 -6.41406,1.57422 0.40481,0.62343 0.61333,1.44079 0.66798,2.35156 1.92187,-1.29874 3.8362,-2.60898 5.74608,-3.92578 z m -14.10351,3.65625 c -1.65851,0.47533 -3.51883,0.98028 -4.91015,1.4043 -0.0452,0.85509 -0.23114,1.80144 -0.60938,2.83789 -0.74267,2.03507 -1.46694,4.12769 -2.33985,6.13477 1.19214,-0.62879 2.32094,-1.38699 3.42188,-2.09375 1.24655,-2.31137 2.30947,-4.35663 4.34179,-8.12305 0.031,-0.0574 0.0644,-0.1042 0.0957,-0.16016 z m -21.62305,7.32422 c -0.87089,0.38182 -1.75583,0.73253 -2.60937,1.15235 -8.68097,4.26965 -8.80743,3.27912 -6.08985,6.54882 1.21057,-0.66262 1.63006,-0.90979 1.83985,-1.03906 -0.23759,0.0618 -0.40935,0.0931 -0.30665,-0.0566 0.41114,-0.59957 1.28252,-0.68533 1.9004,-1.06836 1.18842,-0.73668 2.34375,-1.52634 3.51562,-2.28906 0.65879,-0.4225 0.94782,-0.634 1.48828,-0.97852 0.0501,-0.75724 0.14316,-1.51216 0.26172,-2.26953 z m -6.85937,6.66211 c -0.43489,0.24361 -1.95779,1.21387 0.96485,0.38281 0.16506,-0.047 0.10753,-0.45562 -0.0547,-0.51172 -0.21192,-0.0733 -0.61408,0.0504 -0.9082,0.12696 z" />
    </clipPath>
  </defs>
  <g
     id="layer1"
     transform="translate(-1.8173832,29.785669)">
    <g
       id="g8388">
      <path
         style="fill:none;fill-opacity:1;stroke:#000000;stroke-width:35.986;stroke-dasharray:none;stroke-opacity:1;paint-order:markers stroke fill"
         id="path8361"
         d="m 430.81439,229.48773 a 86.991272,90.886406 0 0 1 -43.49564,78.70994 86.991272,90.886406 0 0 1 -86.99127,0 86.991272,90.886406 0 0 1 -43.49563,-78.70994" />
      <path
         style="fill:none;fill-opacity:1;stroke:#000000;stroke-width:35.986;stroke-dasharray:none;stroke-opacity:1;paint-order:markers stroke fill"
         id="path8361-5"
         d="m -81.371765,-231.72963 a 86.991272,90.886406 0 0 1 -43.495635,78.70994 86.991272,90.886406 0 0 1 -86.99128,0 86.991272,90.886406 0 0 1 -43.49563,-78.70994"
         transform="rotate(179.57901)" />
    </g>
    <ellipse
       style="fill:#000000;fill-opacity:1;stroke:none;stroke-width:58.6689;stroke-dasharray:none;stroke-opacity:1;paint-order:markers stroke fill"
       id="path8507"
       cx="170.74619"
       cy="248.08998"
       rx="52.637238"
       ry="55.08548" />
  </g>
  <g
     id="layer2" />
</svg>
