<svg xmlns="http://www.w3.org/2000/svg" width="65" height="65" viewBox="0 0 500 500" x="140" y="220">
                <style>
                    .wx_text{ 
                        color: black;
                        font-size: 400px;
                        font-family: "Noto Sans";
                        white-space: pre;
                    }
                    .snow{ 
                        color: black;
                        font-size: 300px;
                        font-family: "Noto Sans";
                        white-space: pre;
                    }
                    .wx_graphic {
                        stroke: black;
                        fill: none;
                        stroke-width: 30
                    }
                    .wx_graphic_thin {
                        stroke: black;
                        fill: none;
                        stroke-width: 15
                    }
                </style>
                <g id="+DZ">
        <a transform="matrix(0,0,0,0,20,114)"><ellipse style="fill:#000000;" cx="238" cy="178" rx="88" ry="87"></ellipse>
    <path style="fill:none;fill-opacity:1;stroke:#000000;stroke-width:37;stroke-dasharray:none;stroke-opacity:1;paint-order:markers stroke fill" d="m 174,335 c 9,2 19,3 30,3 h 2 c 56,0 101,-34 101,-76 v -68 c 0,-42 -45,-76 -101,-76 h -2"></path></a>
        <a transform="matrix(0,0,0,0,203,114)"><ellipse style="fill:#000000;" cx="238" cy="178" rx="88" ry="87"></ellipse>
    <path style="fill:none;fill-opacity:1;stroke:#000000;stroke-width:37;stroke-dasharray:none;stroke-opacity:1;paint-order:markers stroke fill" d="m 174,335 c 9,2 19,3 30,3 h 2 c 56,0 101,-34 101,-76 v -68 c 0,-42 -45,-76 -101,-76 h -2"></path></a>
        <a transform="matrix(0,0,0,0,108,-31)"><ellipse style="fill:#000000;" cx="238" cy="178" rx="88" ry="87"></ellipse>
    <path style="fill:none;fill-opacity:1;stroke:#000000;stroke-width:37;stroke-dasharray:none;stroke-opacity:1;paint-order:markers stroke fill" d="m 174,335 c 9,2 19,3 30,3 h 2 c 56,0 101,-34 101,-76 v -68 c 0,-42 -45,-76 -101,-76 h -2"></path></a>
        <a transform="matrix(0,0,0,0,108,261)"><ellipse style="fill:#000000;" cx="238" cy="178" rx="88" ry="87"></ellipse>
    <path style="fill:none;fill-opacity:1;stroke:#000000;stroke-width:37;stroke-dasharray:none;stroke-opacity:1;paint-order:markers stroke fill" d="m 174,335 c 9,2 19,3 30,3 h 2 c 56,0 101,-34 101,-76 v -68 c 0,-42 -45,-76 -101,-76 h -2"></path></a>
    </g>
</svg>