<?xml version="1.0" encoding="UTF-8" standalone="no"?>
<!-- Created with Inkscape (http://www.inkscape.org/) -->

<svg
   width="500.0px"
   height="500.0px"
   viewBox="0 0 500.0 500.0"
   version="1.1"
   id="svg260"
   xmlns="http://www.w3.org/2000/svg"
   xmlns:svg="http://www.w3.org/2000/svg">
  <defs
     id="defs264" />
  <path
     id="path342"
     style="fill:none;stroke:#000000;stroke-width:10.6526;stroke-opacity:1;paint-order:markers stroke fill"
     d="m 322.61133,125.13086 c -16.56384,-20.34934 -42.43354,-31.823704 -69.45117,-30.804688 -11.39949,0.429681 -22.58631,3.074347 -32.87305,7.771488 -35.54781,16.23274 -54.37418,53.88954 -45.19336,90.39648 9.18079,36.50727 43.87857,61.96066 83.29297,61.10156 m -69.90625,126.18555 c 23.94628,29.96696 67.31576,40.40903 104.10937,25.06641 36.79392,-15.34204 57.03041,-52.30668 48.57813,-88.73438 -8.45193,-36.42761 -43.29946,-62.43592 -83.65235,-62.43359" />
  <path
     id="path3368"
     style="fill:none;stroke:#000000;stroke-width:14.613;stroke-opacity:1;paint-order:markers stroke fill"
     d="m 132.67542,247.60383 240.54102,-0.0781 -28.06836,-48.58008" />
  <path
     style="fill:none;fill-opacity:1;stroke:#000000;stroke-width:23.9684;stroke-dasharray:none;stroke-opacity:1;paint-order:markers stroke fill"
     id="path726-8"
     d="M 360.00053,81.763115 A 191.03438,183.93169 27.231663 0 1 460.03388,258.29315 191.03438,183.93169 27.231663 0 1 349.14945,420.36516" />
  <path
     style="fill:none;fill-opacity:1;stroke:#000000;stroke-width:24.9999;stroke-dasharray:none;stroke-opacity:1;paint-order:markers stroke fill"
     d="M 168.50632,423.61357 A 195.04313,189.95573 48.896949 0 1 61.947503,252.54242 195.04313,189.95573 48.896949 0 1 156.44803,80.024787"
     id="path5060" />
</svg>
